<svg xmlns="http://www.w3.org/2000/svg" viewBox="0 0 300 23" width="80" height="6"><filter id="b"><feGaussianBlur stdDeviation="10" /></filter><path fill="#0c2735" d="M0 0h300v22H0z"/><g filter="url(#b)" transform="translate(.6 .6) scale(1.17188)" fill-opacity=".5"><path fill="#0069a2" d="M0 3h122v12H0z"/><ellipse fill="#1f0400" cx="184" cy="18" rx="63" ry="117"/><path d="M14.6 29.8L14.4-16l51 50-27.2-50z"/><ellipse fill="#00a4f8" cx="33" cy="10" rx="6" ry="12"/><path fill="#00a4f7" d="M68 9L55-8v34z"/><path d="M116.3 25.8L59.3-16l16.3 40 11.8-40z"/><path fill="#009ceb" d="M106.7 11.4l14.3 16-1.2 6.6.2-50z"/><ellipse fill="#00a2f3" cx="87" cy="9" rx="8" ry="8"/><ellipse fill="#0097e3" cx="6" cy="9" rx="8" ry="8"/></g></svg>