<svg xmlns="http://www.w3.org/2000/svg" viewBox="0 0 300 23" width="80" height="6"><filter id="b"><feGaussianBlur stdDeviation="10" /></filter><path fill="#092a3a" d="M0 0h300v22H0z"/><g filter="url(#b)" transform="translate(.6 .6) scale(1.17188)" fill-opacity=".5"><ellipse fill="#240400" cx="212" cy="6" rx="62" ry="62"/><ellipse fill="#00adff" cx="59" cy="9" rx="7" ry="10"/><path fill="#00adff" d="M107 8l12 19 1-39z"/><path fill="#00b2ff" d="M24 9l16-21-4 33z"/><ellipse fill="#00a9ff" rx="1" ry="1" transform="matrix(.43117 -9.49503 6.9074 .31366 141.9 9.7)"/><ellipse fill="#00aeff" cx="87" cy="10" rx="8" ry="8"/><ellipse fill="#0af" rx="1" ry="1" transform="matrix(-7.7226 2.27732 -2.08356 -7.06554 5.9 10.3)"/><path d="M83 8.8L34.3 33.3 46.8-16 61 34zM111.5-16l18.1 45.7L140-11.6 92.6 10.1z"/></g></svg>