<svg xmlns="http://www.w3.org/2000/svg" viewBox="0 0 300 300" width="32" height="32"><filter id="b"><feGaussianBlur stdDeviation="10" /></filter><path fill="#656565" d="M0 0h300v300H0z"/><g filter="url(#b)" transform="translate(.6 .6) scale(1.17188)" fill-opacity=".5"><path d="M199.9 77.8l-1.8 103-144-2.6 1.8-103z"/><ellipse cx="128" cy="127" rx="61" ry="61"/><ellipse fill="#979797" rx="1" ry="1" transform="matrix(-207.1777 -1.34946 .3353 -51.47814 129.5 233)"/><path fill="#969696" d="M252-16.6l4.6 85.9L1.9 82.6-2.6-3.3z"/><path fill="#bbb" d="M112.5 101.6l1.2 52.4 41.4-27-4.7-1.9z"/><ellipse fill="#909090" rx="1" ry="1" transform="matrix(-.98406 -93.96713 28.69977 -.30055 231.3 132)"/><ellipse rx="1" ry="1" transform="matrix(4.16102 -52.98807 29.06335 2.28227 83.7 124.8)"/><path fill="#8e8e8e" d="M35-15l34 267-85-86z"/><ellipse rx="1" ry="1" transform="matrix(27.46604 -3.22229 6.03927 51.47737 174.6 124)"/></g></svg>